<svg width="31" height="31" viewBox="0 0 31 31" fill="none" xmlns="http://www.w3.org/2000/svg">
<path d="M15.129 30.0907C17.2037 30.0907 19.1534 29.6992 20.9781 28.9162C22.8029 28.1331 24.412 27.0456 25.8056 25.6535C27.1991 24.2615 28.2927 22.6581 29.0863 20.8435C29.88 19.0289 30.2768 17.0962 30.2768 15.0453C30.2768 12.9946 29.88 11.0619 29.0863 9.24722C28.2927 7.43258 27.196 5.82923 25.7962 4.43717C24.3964 3.04513 22.7841 1.95759 20.9594 1.17455C19.1347 0.391516 17.185 0 15.1103 0C13.0481 0 11.1046 0.391516 9.27989 1.17455C7.45517 1.95759 5.84914 3.04513 4.46183 4.43717C3.07454 5.82923 1.98408 7.43258 1.19045 9.24722C0.396816 11.0619 0 12.9946 0 15.0453C0 17.0962 0.396816 19.0289 1.19045 20.8435C1.98408 22.6581 3.07766 24.2615 4.4712 25.6535C5.86476 27.0456 7.4739 28.1331 9.29863 28.9162C11.1234 29.6992 13.0668 30.0907 15.129 30.0907ZM15.1478 27.2569C13.2855 27.2569 11.5608 26.884 9.97353 26.1383C8.38625 25.3925 7.0302 24.3858 5.90538 23.118V9.97432C5.90538 9.48959 6.03973 9.09807 6.30844 8.79976C6.57715 8.50146 6.93023 8.35231 7.36767 8.35231H17.3037C17.7536 8.35231 18.1098 8.50146 18.3723 8.79976C18.6347 9.09807 18.766 9.48959 18.766 9.97432V26.7162C18.1911 26.8902 17.6005 27.0238 16.9944 27.1171C16.3882 27.2103 15.7727 27.2569 15.1478 27.2569ZM9.31737 24.1061H10.8922C11.1421 24.1061 11.2671 23.9756 11.2671 23.7146V22.2045C11.2671 21.9559 11.1421 21.8316 10.8922 21.8316H9.31737C9.07991 21.8316 8.96118 21.9559 8.96118 22.2045V23.7146C8.96118 23.9756 9.07991 24.1061 9.31737 24.1061ZM13.7792 24.1061H15.3352C15.5977 24.1061 15.7289 23.9756 15.7289 23.7146V22.2045C15.7289 21.9559 15.5977 21.8316 15.3352 21.8316H13.7792C13.5292 21.8316 13.4043 21.9559 13.4043 22.2045V23.7146C13.4043 23.9756 13.5292 24.1061 13.7792 24.1061ZM9.31737 20.4706H10.8922C11.1421 20.4706 11.2671 20.3463 11.2671 20.0977V18.5876C11.2671 18.3391 11.1421 18.2148 10.8922 18.2148H9.31737C9.07991 18.2148 8.96118 18.3391 8.96118 18.5876V20.0977C8.96118 20.3463 9.07991 20.4706 9.31737 20.4706ZM13.7792 20.4706H15.3352C15.5977 20.4706 15.7289 20.3463 15.7289 20.0977V18.5876C15.7289 18.3391 15.5977 18.2148 15.3352 18.2148H13.7792C13.5292 18.2148 13.4043 18.3391 13.4043 18.5876V20.0977C13.4043 20.3463 13.5292 20.4706 13.7792 20.4706ZM9.31737 16.8538H10.8922C11.1421 16.8538 11.2671 16.7233 11.2671 16.4623V14.9708C11.2671 14.7098 11.1421 14.5793 10.8922 14.5793H9.31737C9.07991 14.5793 8.96118 14.7098 8.96118 14.9708V16.4623C8.96118 16.7233 9.07991 16.8538 9.31737 16.8538ZM13.7792 16.8538H15.3352C15.5977 16.8538 15.7289 16.7233 15.7289 16.4623V14.9708C15.7289 14.7098 15.5977 14.5793 15.3352 14.5793H13.7792C13.5292 14.5793 13.4043 14.7098 13.4043 14.9708V16.4623C13.4043 16.7233 13.5292 16.8538 13.7792 16.8538ZM9.31737 13.2556H10.8922C11.1421 13.2556 11.2671 13.1313 11.2671 12.8827V11.3726C11.2671 11.124 11.1421 10.9997 10.8922 10.9997H9.31737C9.07991 10.9997 8.96118 11.124 8.96118 11.3726V12.8827C8.96118 13.1313 9.07991 13.2556 9.31737 13.2556ZM13.7792 13.2556H15.3352C15.5977 13.2556 15.7289 13.1313 15.7289 12.8827V11.3726C15.7289 11.124 15.5977 10.9997 15.3352 10.9997H13.7792C13.5292 10.9997 13.4043 11.124 13.4043 11.3726V12.8827C13.4043 13.1313 13.5292 13.2556 13.7792 13.2556ZM20.0033 26.2688V12.0437H24.2964C24.7463 12.0437 25.1025 12.1929 25.365 12.4912C25.6275 12.7895 25.7587 13.1748 25.7587 13.6471V21.1977C25.1088 22.3163 24.2902 23.3138 23.3028 24.19C22.3155 25.0663 21.2156 25.7592 20.0033 26.2688ZM22.2155 22.8197H23.5465C23.734 22.8197 23.8277 22.7203 23.8277 22.5214V21.2537C23.8277 21.0548 23.734 20.9553 23.5465 20.9553H22.2155C22.003 20.9553 21.8968 21.0548 21.8968 21.2537V22.5214C21.8968 22.7203 22.003 22.8197 22.2155 22.8197ZM22.2155 19.5758H23.5465C23.734 19.5758 23.8277 19.4701 23.8277 19.2588V18.0097C23.8277 17.8108 23.734 17.7114 23.5465 17.7114H22.2155C22.003 17.7114 21.8968 17.8108 21.8968 18.0097V19.2588C21.8968 19.4701 22.003 19.5758 22.2155 19.5758ZM22.2155 16.3131H23.5465C23.734 16.3131 23.8277 16.2137 23.8277 16.0148V14.7471C23.8277 14.5482 23.734 14.4488 23.5465 14.4488H22.2155C22.003 14.4488 21.8968 14.5482 21.8968 14.7471V16.0148C21.8968 16.2137 22.003 16.3131 22.2155 16.3131Z" fill="#9E9E9E"/>
</svg>
