<svg width="80" height="80" viewBox="0 0 80 80" fill="none" xmlns="http://www.w3.org/2000/svg">
<path d="M40.2376 48.8301C42.679 48.8301 44.7705 47.9593 46.512 46.2178C48.2536 44.4762 49.1243 42.3848 49.1243 39.9434C49.1243 37.502 48.2536 35.4105 46.512 33.669C44.7705 31.9274 42.679 31.0567 40.2376 31.0567C37.7636 31.0567 35.6559 31.9274 33.9143 33.669C32.1728 35.4105 31.302 37.502 31.302 39.9434C31.302 42.3848 32.1728 44.4762 33.9143 46.2178C35.6559 47.9593 37.7636 48.8301 40.2376 48.8301ZM40.2376 43.4102C39.261 43.4102 38.4309 43.0765 37.7473 42.4092C37.0638 41.7418 36.722 40.9199 36.722 39.9434C36.722 38.9668 37.0638 38.1448 37.7473 37.4776C38.4309 36.8102 39.261 36.4766 40.2376 36.4766C41.1816 36.4766 41.9954 36.8102 42.679 37.4776C43.3626 38.1448 43.7044 38.9668 43.7044 39.9434C43.7044 40.9199 43.3626 41.7418 42.679 42.4092C41.9954 43.0765 41.1816 43.4102 40.2376 43.4102ZM38.8216 46.4375L33.8411 41.4571L27.8352 47.5118C27.1516 48.1628 26.8098 48.9847 26.8098 49.9776C26.8098 50.9704 27.1516 51.7923 27.8352 52.4434C28.5188 53.127 29.3489 53.4688 30.3255 53.4688C31.3021 53.4688 32.1321 53.127 32.8157 52.4434L38.8216 46.4375ZM41.8001 33.5469L46.8294 38.4785L59.9641 25.295C60.6477 24.6114 60.9895 23.7813 60.9895 22.8047C60.9895 21.8281 60.6477 20.9981 59.9641 20.3145C59.2806 19.6309 58.4505 19.2891 57.4739 19.2891C56.4974 19.2891 55.6673 19.6309 54.9837 20.3145L41.8001 33.5469ZM40.3352 79.3477C45.7389 79.3477 50.817 78.3223 55.5696 76.2715C60.3222 74.2207 64.5133 71.3724 68.1429 67.7266C71.7725 64.0807 74.6208 59.8815 76.6878 55.1289C78.7549 50.3763 79.7884 45.3144 79.7884 39.9434C79.7884 34.5723 78.7549 29.5104 76.6878 24.7578C74.6208 20.0052 71.7643 15.806 68.1184 12.1602C64.4726 8.5143 60.2734 5.666 55.5208 3.61526C50.7682 1.56446 45.6901 0.539062 40.2864 0.539062C34.9154 0.539062 29.8535 1.56446 25.1009 3.61526C20.3483 5.666 16.1654 8.5143 12.552 12.1602C8.93876 15.806 6.0986 20.0052 4.03155 24.7578C1.9645 29.5104 0.930969 34.5723 0.930969 39.9434C0.930969 45.3144 1.9645 50.3763 4.03155 55.1289C6.0986 59.8815 8.9469 64.0807 12.5764 67.7266C16.206 71.3724 20.3971 74.2207 25.1497 76.2715C29.9023 78.3223 34.9642 79.3477 40.3352 79.3477ZM40.3352 71.9258C35.9082 71.9258 31.7659 71.1038 27.9085 69.46C24.0511 67.8161 20.6656 65.5293 17.7522 62.5996C14.8388 59.6699 12.5602 56.2682 10.9163 52.3946C9.27246 48.5208 8.45053 44.3704 8.45053 39.9434C8.45053 35.5163 9.26433 31.3659 10.8919 27.4922C12.5195 23.6185 14.79 20.2168 17.7034 17.2871C20.6168 14.3574 24.0022 12.0706 27.8596 10.4268C31.7171 8.7829 35.8594 7.96097 40.2864 7.96097C44.7461 7.96097 48.9046 8.7829 52.762 10.4268C56.6194 12.0706 60.013 14.3574 62.9427 17.2871C65.8724 20.2168 68.1673 23.6185 69.8274 27.4922C71.4876 31.3659 72.3177 35.5163 72.3177 39.9434C72.3177 44.3704 71.4958 48.5208 69.8518 52.3946C68.208 56.2682 65.9293 59.6699 63.0159 62.5996C60.1025 65.5293 56.709 67.8161 52.8352 69.46C48.9616 71.1038 44.7949 71.9258 40.3352 71.9258Z" fill="#9E9E9E"/>
</svg>
