<svg width="84" height="68" viewBox="0 0 84 68" fill="none" xmlns="http://www.w3.org/2000/svg">
<path d="M66.8285 67.3359C69.921 67.3359 72.7286 66.6035 75.2514 65.1387C77.7742 63.6738 79.7843 61.7126 81.2817 59.2549C82.7791 56.7972 83.5278 54.071 83.5278 51.0762C83.5278 48.5696 83.0233 46.1364 82.0141 43.7764C81.005 41.4164 79.9959 39.2598 78.9867 37.3067L70.5883 21.7305C70.0675 20.7865 69.5466 20.1029 69.0258 19.6797C68.505 19.2565 67.7726 19.045 66.8285 19.045C65.9171 19.045 65.2009 19.2565 64.6801 19.6797C64.1593 20.1029 63.6384 20.7865 63.1176 21.7305L54.768 37.3067C53.7589 39.2598 52.7498 41.4164 51.7406 43.7764C50.7316 46.1364 50.227 48.5696 50.227 51.0762C50.227 54.071 50.9757 56.7972 52.4731 59.2549C53.9705 61.7126 55.9725 63.6738 58.4789 65.1387C60.9855 66.6035 63.7687 67.3359 66.8285 67.3359ZM66.8285 61.623C64.8103 61.623 62.9793 61.151 61.3354 60.207C59.6916 59.263 58.3813 57.9935 57.4047 56.3985C56.4282 54.8034 55.9399 53.0293 55.9399 51.0762C55.9399 49.2207 56.3387 47.3978 57.1362 45.6075C57.9337 43.8171 58.837 41.9453 59.8461 39.9921L66.5356 27.5899C66.6332 27.4271 66.7553 27.3457 66.9018 27.3457C67.0483 27.3457 67.1704 27.4271 67.268 27.5899L73.811 39.9921C74.8527 41.9453 75.7804 43.8171 76.5942 45.6075C77.408 47.3978 77.8149 49.2207 77.8149 51.0762C77.8149 53.0293 77.3266 54.8034 76.35 56.3985C75.3735 57.9935 74.0551 59.263 72.3949 60.207C70.7348 61.151 68.8793 61.623 66.8285 61.623ZM16.5356 21.4864C19.9861 21.4864 23.1681 20.9981 26.0815 20.0215C28.9949 19.0449 31.7537 17.8405 34.3578 16.4082C36.962 14.9759 39.5418 13.5436 42.0971 12.1114C44.6525 10.679 47.2973 9.47458 50.0317 8.49805C52.7661 7.52145 55.7446 7.03315 58.9672 7.03315C60.7576 7.03315 62.5073 7.26102 64.2162 7.71675C65.9252 8.17248 67.7563 8.95375 69.7094 10.0606C70.6209 10.5814 71.4835 10.7116 72.2973 10.4512C73.1111 10.1908 73.7459 9.73502 74.2016 9.08395C74.755 8.30268 74.9585 7.39125 74.8119 6.34965C74.6655 5.30792 73.9575 4.42899 72.6879 3.71285C68.4562 1.23892 63.8826 0.00195312 58.9672 0.00195312C55.4842 0.00195312 52.2859 0.490218 49.3725 1.46675C46.4591 2.44335 43.7003 3.64778 41.0961 5.08005C38.492 6.51238 35.9204 7.94469 33.3813 9.37695C30.8423 10.8092 28.1974 12.0137 25.4467 12.9903C22.6961 13.9668 19.7257 14.4551 16.5356 14.4551C14.7452 14.4551 12.9955 14.2272 11.2865 13.7715C9.5776 13.3157 7.74656 12.5345 5.79343 11.4278C4.88196 10.9069 4.0112 10.7767 3.18113 11.0371C2.35106 11.2975 1.72443 11.7696 1.30123 12.4532C0.780391 13.2344 0.593214 14.1458 0.739701 15.1875C0.886187 16.2291 1.56163 17.0918 2.76603 17.7754C7.03036 20.2494 11.6202 21.4864 16.5356 21.4864ZM16.5844 41.9942C19.6118 41.9942 22.4112 41.6198 24.9828 40.8711C27.5545 40.1224 30.0041 39.154 32.3315 37.9659C34.659 36.7777 36.9295 35.5407 39.143 34.2549C41.3566 32.9691 43.6108 31.7809 45.9057 30.6905C48.2007 29.5999 50.6177 28.778 53.1567 28.2247C53.8403 26.9551 54.5238 25.6856 55.2074 24.416C55.891 23.1465 56.5746 21.8607 57.2582 20.5586C54.003 20.7539 50.992 21.3643 48.225 22.3897C45.4581 23.4151 42.8214 24.6276 40.3149 26.0274C37.8084 27.4271 35.3263 28.8106 32.8686 30.1778C30.4109 31.545 27.8556 32.6843 25.2026 33.5957C22.5496 34.5071 19.6769 34.9629 16.5844 34.9629C14.794 34.9629 13.0444 34.735 11.3354 34.2793C9.62643 33.8235 7.79536 33.0423 5.84223 31.9356C4.93076 31.4147 4.06 31.2845 3.22993 31.545C2.39986 31.8054 1.77323 32.2774 1.35003 32.961C0.82921 33.7422 0.642044 34.6537 0.788531 35.6954C0.934997 36.737 1.61046 37.5996 2.81493 38.2831C7.0792 40.7571 11.669 41.9942 16.5844 41.9942ZM16.5356 62.5019C19.4002 62.5019 22.0694 62.152 24.5434 61.4521C27.0174 60.7523 29.3774 59.8571 31.6235 58.7666C33.8696 57.6761 36.0506 56.5205 38.1664 55.2998C40.2824 54.0791 42.4471 52.9317 44.6606 51.8575C44.5304 50.946 44.5711 49.7171 44.7826 48.1709C44.9942 46.6247 45.2954 45.2005 45.686 43.8985C43.212 44.9401 40.8276 46.1201 38.5326 47.4385C36.2378 48.7569 33.951 50.0264 31.6723 51.2471C29.3937 52.4678 27.0174 53.4769 24.5434 54.2745C22.0694 55.0719 19.4002 55.4706 16.5356 55.4706C14.7452 55.4706 12.9955 55.2428 11.2865 54.7871C9.5776 54.3314 7.74656 53.5502 5.79343 52.4434C4.88196 51.9225 4.0112 51.7923 3.18113 52.0527C2.35106 52.3131 1.72443 52.7851 1.30123 53.4688C0.780391 54.25 0.593214 55.1615 0.739701 56.2032C0.886187 57.2448 1.56163 58.1074 2.76603 58.791C7.03036 61.265 11.6202 62.5019 16.5356 62.5019Z" fill="#9E9E9E"/>
</svg>
